<?xml version="1.0" encoding="utf-8"?>
<!-- Generator: Adobe Illustrator 24.0.0, SVG Export Plug-In . SVG Version: 6.00 Build 0)  -->
<svg version="1.1" id="Calque_1" xmlns="http://www.w3.org/2000/svg" xmlns:xlink="http://www.w3.org/1999/xlink" x="0px" y="0px"
	 viewBox="0 0 171.08 78.04" style="enable-background:new 0 0 171.08 78.04;" xml:space="preserve">
<style type="text/css">
	.st0{fill:none;stroke:#70B966;stroke-width:7;stroke-miterlimit:10;}
	.st1{fill:none;stroke:#E7353C;stroke-width:7;stroke-miterlimit:10;}
	.st2{fill:none;stroke:#3A509E;stroke-width:7;stroke-miterlimit:10;}
	.st3{fill:none;stroke:#00A96C;stroke-width:7;stroke-miterlimit:10;}
</style>
<g>
	<path d="M16.14,44.83c-5.29,0-6.08-5.15-6.08-8.22V24.29H0.7v12.33c0,12.19,8.32,16.52,15.44,16.52c7.89,0,15.84-5.11,15.84-16.52
		h-9.37C22.62,39.09,21.99,44.83,16.14,44.83z"/>
	<path d="M16.14,44.83c-5.29,0-6.08-5.15-6.08-8.22V24.29H0.7v12.33c0,12.19,8.32,16.52,15.44,16.52c7.89,0,15.84-5.11,15.84-16.52
		h-9.37C22.62,39.09,21.99,44.83,16.14,44.83z"/>
	<path d="M5.38,16.07c2.97,0,5.38-2.14,5.38-4.77S8.35,6.53,5.38,6.53C2.41,6.53,0,8.67,0,11.3S2.41,16.07,5.38,16.07z"/>
	<path d="M5.38,16.07c2.97,0,5.38-2.14,5.38-4.77S8.35,6.53,5.38,6.53C2.41,6.53,0,8.67,0,11.3S2.41,16.07,5.38,16.07z"/>
	<path d="M57.69,61.52c0,3.75-1.05,8.22-6.08,8.22c-5.84,0-6.48-5.75-6.48-8.22h-9.37c0,11.41,7.96,16.52,15.84,16.52
		c7.12,0,15.44-4.33,15.44-16.52V24.82h-9.37V61.52z"/>
	<path d="M57.69,61.52c0,3.75-1.05,8.22-6.08,8.22c-5.84,0-6.48-5.75-6.48-8.22h-9.37c0,11.41,7.96,16.52,15.84,16.52
		c7.12,0,15.44-4.33,15.44-16.52V24.82h-9.37V61.52z"/>
	<ellipse cx="62.37" cy="11.3" rx="5.38" ry="4.77"/>
	<ellipse cx="62.37" cy="11.3" rx="5.38" ry="4.77"/>
	<g>
		<path d="M118.95,44.52c0.21-0.61,0.41-1.23,0.52-1.88l0.19-0.17v-1.72c0-7.34-7.03-13.32-15.67-13.32
			c-8.64,0-15.67,5.97-15.67,13.32l-0.04,0.04c0,7.34,7.03,13.32,15.67,13.32c3.51,0,6.72-1.03,9.33-2.69
			c4.59,1.76,7.71,2.68,11,2.68c1.09,0,2.19-0.1,3.38-0.31l-1.79-8.15C124.01,45.97,122.69,45.87,118.95,44.52z M110.25,40.79
			c0,2.77-2.83,5.02-6.31,5.02c-3.48,0-6.31-2.25-6.31-5.02l0.04-0.04c0-2.76,2.83-5.02,6.31-5.02c3.23,0,5.9,1.94,6.26,4.43V40.79z
			"/>
		<path d="M118.95,44.52c0.21-0.61,0.41-1.23,0.52-1.88l0.19-0.17v-1.72c0-7.34-7.03-13.32-15.67-13.32
			c-8.64,0-15.67,5.97-15.67,13.32l-0.04,0.04c0,7.34,7.03,13.32,15.67,13.32c3.51,0,6.72-1.03,9.33-2.69
			c4.59,1.76,7.71,2.68,11,2.68c1.09,0,2.19-0.1,3.38-0.31l-1.79-8.15C124.01,45.97,122.69,45.87,118.95,44.52z M110.25,40.79
			c0,2.77-2.83,5.02-6.31,5.02c-3.48,0-6.31-2.25-6.31-5.02l0.04-0.04c0-2.76,2.83-5.02,6.31-5.02c3.23,0,5.9,1.94,6.26,4.43V40.79z
			"/>
		<path d="M171.08,0h-9.37v28.58c-1.93-0.73-4.06-1.15-6.31-1.15c-8.64,0-15.67,5.97-15.67,13.32l-0.04,0.04
			c0,7.34,7.03,13.32,15.67,13.32c7.9,0,14.46-5,15.52-11.47l0.19-0.17v-1.72c0-0.15-0.05-0.28-0.05-0.43h0.05V0z M161.68,40.79
			c0,2.77-2.83,5.02-6.31,5.02c-3.48,0-6.31-2.25-6.31-5.02l0.04-0.04c0-2.76,2.83-5.02,6.31-5.02c3.23,0,5.9,1.94,6.26,4.43V40.79z
			"/>
		<path d="M171.08,0h-9.37v28.58c-1.93-0.73-4.06-1.15-6.31-1.15c-8.64,0-15.67,5.97-15.67,13.32l-0.04,0.04
			c0,7.34,7.03,13.32,15.67,13.32c7.9,0,14.46-5,15.52-11.47l0.19-0.17v-1.72c0-0.15-0.05-0.28-0.05-0.43h0.05V0z M161.68,40.79
			c0,2.77-2.83,5.02-6.31,5.02c-3.48,0-6.31-2.25-6.31-5.02l0.04-0.04c0-2.76,2.83-5.02,6.31-5.02c3.23,0,5.9,1.94,6.26,4.43V40.79z
			"/>
	</g>
</g>
</svg>
