<?xml version="1.0" encoding="utf-8"?>
<!-- Generator: Adobe Illustrator 24.0.0, SVG Export Plug-In . SVG Version: 6.00 Build 0)  -->
<svg version="1.1" id="Calque_1" xmlns="http://www.w3.org/2000/svg" xmlns:xlink="http://www.w3.org/1999/xlink" x="0px" y="0px"
	 viewBox="0 0 171.08 213.62" style="enable-background:new 0 0 171.08 213.62;" xml:space="preserve">
<style type="text/css">
	.st0{fill:none;stroke:#000000;stroke-width:3;stroke-miterlimit:10;}
	.st1{fill:none;stroke:#000000;stroke-width:7;stroke-miterlimit:10;}
	.st2{fill:none;stroke:#000000;stroke-width:5;stroke-miterlimit:10;}
</style>
<g>
	<g>
		<path class="st1" d="M132.6,160.89c0,27.14-22.08,49.23-49.23,49.23s-49.23-22.08-49.23-49.23"/>
		<path class="st1" d="M118.41,160.89c0,19.35-15.69,35.04-35.04,35.04s-35.04-15.69-35.04-35.04"/>
	</g>
	<g>
		<path class="st1" d="M132.6,52.73c0-27.14-22.08-49.23-49.23-49.23S34.14,25.58,34.14,52.73"/>
		<path class="st1" d="M118.41,52.73c0-19.35-15.69-35.04-35.04-35.04S48.33,33.37,48.33,52.73"/>
	</g>
	<g>
		<path d="M16.14,107.74c-5.29,0-6.08-5.15-6.08-8.22V87.19H0.7v12.33c0,12.19,8.32,16.52,15.44,16.52
			c7.89,0,15.84-5.11,15.84-16.52h-9.37C22.62,102,21.99,107.74,16.14,107.74z"/>
		<path d="M16.14,107.74c-5.29,0-6.08-5.15-6.08-8.22V87.19H0.7v12.33c0,12.19,8.32,16.52,15.44,16.52
			c7.89,0,15.84-5.11,15.84-16.52h-9.37C22.62,102,21.99,107.74,16.14,107.74z"/>
		<path d="M5.38,78.98c2.97,0,5.38-2.14,5.38-4.77c0-2.63-2.41-4.77-5.38-4.77C2.41,69.44,0,71.58,0,74.21
			C0,76.85,2.41,78.98,5.38,78.98z"/>
		<path d="M5.38,78.98c2.97,0,5.38-2.14,5.38-4.77c0-2.63-2.41-4.77-5.38-4.77C2.41,69.44,0,71.58,0,74.21
			C0,76.85,2.41,78.98,5.38,78.98z"/>
		<path d="M57.69,124.43c0,3.75-1.05,8.22-6.08,8.22c-5.84,0-6.48-5.75-6.48-8.22h-9.37c0,11.41,7.96,16.52,15.84,16.52
			c7.12,0,15.44-4.33,15.44-16.52V87.72h-9.37V124.43z"/>
		<path d="M57.69,124.43c0,3.75-1.05,8.22-6.08,8.22c-5.84,0-6.48-5.75-6.48-8.22h-9.37c0,11.41,7.96,16.52,15.84,16.52
			c7.12,0,15.44-4.33,15.44-16.52V87.72h-9.37V124.43z"/>
		<ellipse cx="62.37" cy="74.21" rx="5.38" ry="4.77"/>
		<ellipse cx="62.37" cy="74.21" rx="5.38" ry="4.77"/>
		<g>
			<path d="M118.95,107.43c0.21-0.61,0.41-1.23,0.52-1.88l0.19-0.17v-1.72c0-7.34-7.03-13.32-15.67-13.32
				c-8.64,0-15.67,5.97-15.67,13.32l-0.04,0.04c0,7.34,7.03,13.32,15.67,13.32c3.51,0,6.72-1.03,9.33-2.69
				c4.59,1.76,7.71,2.68,11,2.68c1.09,0,2.19-0.1,3.38-0.31l-1.79-8.15C124.01,108.88,122.69,108.78,118.95,107.43z M110.25,103.7
				c0,2.77-2.83,5.02-6.31,5.02c-3.48,0-6.31-2.25-6.31-5.02l0.04-0.04c0-2.76,2.83-5.02,6.31-5.02c3.23,0,5.9,1.94,6.26,4.43V103.7
				z"/>
			<path d="M118.95,107.43c0.21-0.61,0.41-1.23,0.52-1.88l0.19-0.17v-1.72c0-7.34-7.03-13.32-15.67-13.32
				c-8.64,0-15.67,5.97-15.67,13.32l-0.04,0.04c0,7.34,7.03,13.32,15.67,13.32c3.51,0,6.72-1.03,9.33-2.69
				c4.59,1.76,7.71,2.68,11,2.68c1.09,0,2.19-0.1,3.38-0.31l-1.79-8.15C124.01,108.88,122.69,108.78,118.95,107.43z M110.25,103.7
				c0,2.77-2.83,5.02-6.31,5.02c-3.48,0-6.31-2.25-6.31-5.02l0.04-0.04c0-2.76,2.83-5.02,6.31-5.02c3.23,0,5.9,1.94,6.26,4.43V103.7
				z"/>
			<path d="M171.08,62.91h-9.37v28.58c-1.93-0.73-4.06-1.15-6.31-1.15c-8.64,0-15.67,5.97-15.67,13.32l-0.04,0.04
				c0,7.34,7.03,13.32,15.67,13.32c7.9,0,14.46-5,15.52-11.47l0.19-0.17v-1.72c0-0.15-0.05-0.28-0.05-0.43h0.05V62.91z
				 M161.68,103.7c0,2.77-2.83,5.02-6.31,5.02c-3.48,0-6.31-2.25-6.31-5.02l0.04-0.04c0-2.76,2.83-5.02,6.31-5.02
				c3.23,0,5.9,1.94,6.26,4.43V103.7z"/>
			<path d="M171.08,62.91h-9.37v28.58c-1.93-0.73-4.06-1.15-6.31-1.15c-8.64,0-15.67,5.97-15.67,13.32l-0.04,0.04
				c0,7.34,7.03,13.32,15.67,13.32c7.9,0,14.46-5,15.52-11.47l0.19-0.17v-1.72c0-0.15-0.05-0.28-0.05-0.43h0.05V62.91z
				 M161.68,103.7c0,2.77-2.83,5.02-6.31,5.02c-3.48,0-6.31-2.25-6.31-5.02l0.04-0.04c0-2.76,2.83-5.02,6.31-5.02
				c3.23,0,5.9,1.94,6.26,4.43V103.7z"/>
		</g>
	</g>
</g>
</svg>
